<svg width="26" height="26" viewBox="0 0 26 26" fill="none" xmlns="http://www.w3.org/2000/svg">
<path d="M10.9999 3.00012L13.0034 1L14 2M3.49988 10.5001L0.999756 13.0037L4 16M10 22L13.0034 25.0073L15 23M23 15L25.0071 13.0037L18.5 6.5" stroke="black"/>
<mask id="path-2-outside-1_458_8" maskUnits="userSpaceOnUse" x="1.99951" y="3" width="18" height="19" fill="black">
<rect fill="white" x="1.99951" y="3" width="18" height="19"/>
<path d="M6.90151 21.13L4.37951 5.842C4.25818 5.14867 3.88551 4.66333 3.26151 4.386L3.13151 4.36L3.23551 3.814H9.24151L9.16351 4.334L8.85151 4.438C8.17551 4.66333 7.88951 5.13133 7.99351 5.842L9.65751 17.334L15.5075 5.738C15.8368 5.07933 15.6462 4.63733 14.9355 4.412L14.7275 4.334L14.8055 3.814H18.5235L18.4195 4.36L18.1335 4.438C17.3708 4.68067 16.7902 5.15733 16.3915 5.868L8.56551 21.13H6.90151Z"/>
</mask>
<path d="M6.90151 21.13L4.37951 5.842C4.25818 5.14867 3.88551 4.66333 3.26151 4.386L3.13151 4.36L3.23551 3.814H9.24151L9.16351 4.334L8.85151 4.438C8.17551 4.66333 7.88951 5.13133 7.99351 5.842L9.65751 17.334L15.5075 5.738C15.8368 5.07933 15.6462 4.63733 14.9355 4.412L14.7275 4.334L14.8055 3.814H18.5235L18.4195 4.36L18.1335 4.438C17.3708 4.68067 16.7902 5.15733 16.3915 5.868L8.56551 21.13H6.90151Z" fill="black"/>
<path d="M6.90151 21.13L6.40818 21.2114L6.47724 21.63H6.90151V21.13ZM4.37951 5.842L4.87287 5.76061L4.87203 5.75581L4.37951 5.842ZM3.26151 4.386L3.46458 3.92909L3.41393 3.90658L3.35957 3.89571L3.26151 4.386ZM3.13151 4.36L2.64034 4.26644L2.54764 4.75313L3.03345 4.85029L3.13151 4.36ZM3.23551 3.814V3.314H2.82176L2.74434 3.72044L3.23551 3.814ZM9.24151 3.814L9.73598 3.88817L9.82211 3.314H9.24151V3.814ZM9.16351 4.334L9.32163 4.80834L9.6125 4.71138L9.65798 4.40817L9.16351 4.334ZM8.85151 4.438L9.00963 4.91234L9.00963 4.91234L8.85151 4.438ZM7.99351 5.842L8.48835 5.77035L8.48824 5.7696L7.99351 5.842ZM9.65751 17.334L9.16267 17.4057L9.38986 18.9746L10.1039 17.5592L9.65751 17.334ZM15.5075 5.738L15.9539 5.96321L15.9547 5.96161L15.5075 5.738ZM14.9355 4.412L14.7599 4.88016L14.7721 4.88471L14.7844 4.88861L14.9355 4.412ZM14.7275 4.334L14.233 4.25983L14.173 4.66006L14.5519 4.80216L14.7275 4.334ZM14.8055 3.814V3.314H14.3749L14.311 3.73983L14.8055 3.814ZM18.5235 3.814L19.0147 3.90756L19.1277 3.314H18.5235V3.814ZM18.4195 4.36L18.5511 4.84238L18.8523 4.76024L18.9107 4.45356L18.4195 4.36ZM18.1335 4.438L18.002 3.95562L17.9919 3.95837L17.9819 3.96154L18.1335 4.438ZM16.3915 5.868L15.9554 5.62337L15.9509 5.63153L15.9466 5.63986L16.3915 5.868ZM8.56551 21.13V21.63H8.87103L9.01043 21.3581L8.56551 21.13ZM7.39484 21.0486L4.87284 5.76062L3.88618 5.92338L6.40818 21.2114L7.39484 21.0486ZM4.87203 5.75581C4.72304 4.90446 4.24632 4.27653 3.46458 3.92909L3.05844 4.8429C3.5247 5.05013 3.79332 5.39287 3.887 5.92819L4.87203 5.75581ZM3.35957 3.89571L3.22957 3.86971L3.03345 4.85029L3.16346 4.87629L3.35957 3.89571ZM3.62268 4.45356L3.72668 3.90756L2.74434 3.72044L2.64034 4.26644L3.62268 4.45356ZM3.23551 4.314H9.24151V3.314H3.23551V4.314ZM8.74704 3.73983L8.66904 4.25983L9.65798 4.40817L9.73598 3.88817L8.74704 3.73983ZM9.0054 3.85966L8.6934 3.96366L9.00963 4.91234L9.32163 4.80834L9.0054 3.85966ZM8.6934 3.96366C8.27754 4.10228 7.92431 4.33574 7.70337 4.69727C7.48276 5.05827 7.43517 5.4797 7.49878 5.9144L8.48824 5.7696C8.44786 5.49363 8.49126 5.32573 8.55665 5.21872C8.62171 5.11226 8.74948 4.99906 9.00963 4.91234L8.6934 3.96366ZM7.49867 5.91365L9.16267 17.4057L10.1524 17.2623L8.48835 5.77035L7.49867 5.91365ZM10.1039 17.5592L15.9539 5.96321L15.0611 5.51279L9.2111 17.1088L10.1039 17.5592ZM15.9547 5.96161C16.1501 5.57079 16.2497 5.12951 16.0706 4.71445C15.8925 4.30159 15.5045 4.06787 15.0866 3.93538L14.7844 4.88861C15.0772 4.98146 15.1398 5.08141 15.1524 5.11055C15.164 5.13749 15.1942 5.24654 15.0603 5.51439L15.9547 5.96161ZM15.1111 3.94384L14.9031 3.86583L14.5519 4.80216L14.7599 4.88016L15.1111 3.94384ZM15.222 4.40817L15.3 3.88817L14.311 3.73983L14.233 4.25983L15.222 4.40817ZM14.8055 4.314H18.5235V3.314H14.8055V4.314ZM18.0323 3.72044L17.9283 4.26644L18.9107 4.45356L19.0147 3.90756L18.0323 3.72044ZM18.288 3.87762L18.002 3.95562L18.2651 4.92038L18.5511 4.84238L18.288 3.87762ZM17.9819 3.96154C17.0961 4.2434 16.4149 4.80439 15.9554 5.62337L16.8276 6.11263C17.1655 5.51027 17.6456 5.11793 18.2851 4.91446L17.9819 3.96154ZM15.9466 5.63986L8.1206 20.9019L9.01043 21.3581L16.8364 6.09614L15.9466 5.63986ZM8.56551 20.63H6.90151V21.63H8.56551V20.63Z" fill="black" mask="url(#path-2-outside-1_458_8)"/>
<mask id="path-4-outside-2_458_8" maskUnits="userSpaceOnUse" x="12" y="13" width="11" height="9" fill="black">
<rect fill="white" x="12" y="13" width="11" height="9"/>
<path d="M14.9883 14.8037C14.9167 14.8786 14.8353 14.9404 14.7441 14.9893C14.653 15.0348 14.557 15.0641 14.4561 15.0771C14.3551 15.0869 14.2591 15.0706 14.168 15.0283C14.0801 14.986 14.0036 14.9258 13.9385 14.8477C13.7985 14.6849 13.7285 14.5205 13.7285 14.3545C13.7285 14.1885 13.7546 14.0648 13.8066 13.9834C13.862 13.8988 13.9303 13.8304 14.0117 13.7783C14.168 13.6774 14.3145 13.627 14.4512 13.627C14.5911 13.627 14.6986 13.6367 14.7734 13.6562C14.8516 13.6758 14.9232 13.7083 14.9883 13.7539C15.1478 13.8613 15.2275 13.9932 15.2275 14.1494C15.2275 14.3024 15.2048 14.431 15.1592 14.5352C15.1169 14.6361 15.0599 14.7256 14.9883 14.8037ZM13.9873 20.0869C14.0719 20.0869 14.1143 20.1423 14.1143 20.2529C14.1143 20.3994 14.0475 20.5508 13.9141 20.707C13.7188 20.9349 13.4567 21.0488 13.1279 21.0488C12.7503 21.0488 12.4915 20.8958 12.3516 20.5898C12.2995 20.4824 12.2734 20.3522 12.2734 20.1992C12.2734 20.0462 12.2995 19.877 12.3516 19.6914C12.4069 19.5026 12.4736 19.3057 12.5518 19.1006C12.6331 18.8923 12.721 18.6823 12.8154 18.4707L13.0742 17.8555C13.263 17.3965 13.3574 17.0938 13.3574 16.9473C13.3574 16.8008 13.3411 16.7048 13.3086 16.6592C13.2793 16.6104 13.2467 16.5729 13.2109 16.5469L13.1133 16.4785C13.0807 16.4557 13.0645 16.4167 13.0645 16.3613C13.0645 16.3027 13.0856 16.2474 13.1279 16.1953C13.1735 16.1432 13.2321 16.0977 13.3037 16.0586C13.4502 15.9837 13.6211 15.9463 13.8164 15.9463C14.2949 15.9463 14.5342 16.0716 14.5342 16.3223C14.5342 16.6152 14.4577 16.9505 14.3047 17.3281C14.1517 17.7025 14.0215 18.0052 13.9141 18.2363L13.6211 18.9102C13.4062 19.4049 13.2988 19.7614 13.2988 19.9795C13.2988 20.1227 13.3704 20.1943 13.5137 20.1943C13.6536 20.1943 13.7594 20.1764 13.8311 20.1406C13.9027 20.1048 13.9548 20.0869 13.9873 20.0869ZM18.8945 16.8691C18.7057 16.8691 18.3607 17.1426 17.8594 17.6895C17.485 18.1159 17.2132 18.4365 17.0439 18.6514L16.6045 19.208C16.4157 19.5661 16.2676 19.8639 16.1602 20.1016L15.8965 20.668C15.8281 20.8079 15.7679 20.9072 15.7158 20.9658C15.667 21.0212 15.5986 21.0488 15.5107 21.0488C15.4261 21.0488 15.3431 21.0326 15.2617 21C15.1836 20.9707 15.1152 20.9316 15.0566 20.8828C14.9329 20.7786 14.8711 20.6647 14.8711 20.541C14.8711 20.4922 14.9069 20.3962 14.9785 20.2529L15.1641 19.8574C15.2227 19.7402 15.291 19.5905 15.3691 19.4082L15.6426 18.7393C16.0267 17.779 16.2188 17.1589 16.2188 16.8789C16.2188 16.7292 16.1699 16.6185 16.0723 16.5469L15.9746 16.4785C15.9421 16.4557 15.9258 16.4167 15.9258 16.3613C15.9258 16.3027 15.9469 16.2474 15.9893 16.1953C16.0348 16.1432 16.0934 16.0977 16.165 16.0586C16.3115 15.9837 16.458 15.9463 16.6045 15.9463C16.7542 15.9463 16.8714 15.9626 16.9561 15.9951C17.0407 16.0277 17.1139 16.0716 17.1758 16.127C17.2995 16.2409 17.3613 16.3597 17.3613 16.4834C17.3613 16.6071 17.3451 16.7324 17.3125 16.8594C17.2799 16.9831 17.2393 17.11 17.1904 17.2402C17.1416 17.3672 17.0895 17.4909 17.0342 17.6113C16.904 17.8913 16.8226 18.0638 16.79 18.1289C16.7607 18.1908 16.7526 18.2135 16.7656 18.1973C17.3613 17.4258 17.7194 16.9701 17.8398 16.8301C18.0905 16.5404 18.2858 16.3418 18.4258 16.2344C18.6829 16.0423 18.9255 15.9463 19.1533 15.9463C19.3844 15.9463 19.5684 16.0179 19.7051 16.1611C19.8418 16.3044 19.9102 16.4932 19.9102 16.7275C19.9102 16.9326 19.8581 17.1735 19.7539 17.4502C19.6497 17.7269 19.5798 17.9206 19.5439 18.0312L20.2617 17.084L20.6621 16.6055C20.903 16.3353 21.1146 16.1579 21.2969 16.0732C21.4792 15.9886 21.6273 15.9463 21.7412 15.9463C21.8584 15.9463 21.9723 15.9674 22.083 16.0098C22.1969 16.0521 22.293 16.1123 22.3711 16.1904C22.5371 16.3499 22.6201 16.5615 22.6201 16.8252C22.6201 17.0791 22.5615 17.3395 22.4443 17.6064C22.3271 17.8734 22.2246 18.0931 22.1367 18.2656C22.0488 18.4349 21.9642 18.6058 21.8828 18.7783C21.6452 19.2959 21.5264 19.68 21.5264 19.9307C21.5264 20.1064 21.598 20.1943 21.7412 20.1943C21.8779 20.1943 22.0016 20.165 22.1123 20.1064C22.2262 20.0479 22.2995 20.0186 22.332 20.0186C22.4004 20.0186 22.4346 20.0527 22.4346 20.1211C22.4346 20.4108 22.2865 20.6533 21.9902 20.8486C21.7917 20.9821 21.6094 21.0488 21.4434 21.0488C21.2806 21.0488 21.1488 21.0293 21.0479 20.9902C20.9469 20.9512 20.8558 20.8893 20.7744 20.8047C20.5921 20.6159 20.501 20.3799 20.501 20.0967C20.501 19.8135 20.5368 19.5531 20.6084 19.3154C20.68 19.0778 20.7646 18.8483 20.8623 18.627C20.96 18.4023 21.0576 18.1973 21.1553 18.0117C21.2562 17.8229 21.3327 17.6732 21.3848 17.5625C21.4889 17.3346 21.541 17.167 21.541 17.0596C21.541 16.9326 21.4743 16.8691 21.3408 16.8691C21.165 16.8691 20.8493 17.1605 20.3936 17.7432C20.0485 18.1956 19.8092 18.5212 19.6758 18.7197L19.3389 19.208C19.1501 19.5661 19.0052 19.8639 18.9043 20.1016L18.6553 20.668C18.5934 20.8079 18.5397 20.9072 18.4941 20.9658C18.4486 21.0212 18.3851 21.0488 18.3037 21.0488C18.2223 21.0488 18.1426 21.0358 18.0645 21.0098C17.9896 20.9837 17.9245 20.9495 17.8691 20.9072C17.7422 20.8128 17.6787 20.7135 17.6787 20.6094C17.6787 20.502 17.7129 20.3571 17.7812 20.1748C17.8529 19.9893 17.9408 19.7826 18.0449 19.5547L18.7285 18.1094C18.9727 17.5723 19.0947 17.2321 19.0947 17.0889C19.0947 16.9424 19.028 16.8691 18.8945 16.8691ZM19.3779 18.2461C19.3812 18.2461 19.3828 18.2445 19.3828 18.2412L19.3877 18.2314C19.3812 18.238 19.3779 18.2428 19.3779 18.2461Z"/>
</mask>
<path d="M14.9883 14.8037C14.9167 14.8786 14.8353 14.9404 14.7441 14.9893C14.653 15.0348 14.557 15.0641 14.4561 15.0771C14.3551 15.0869 14.2591 15.0706 14.168 15.0283C14.0801 14.986 14.0036 14.9258 13.9385 14.8477C13.7985 14.6849 13.7285 14.5205 13.7285 14.3545C13.7285 14.1885 13.7546 14.0648 13.8066 13.9834C13.862 13.8988 13.9303 13.8304 14.0117 13.7783C14.168 13.6774 14.3145 13.627 14.4512 13.627C14.5911 13.627 14.6986 13.6367 14.7734 13.6562C14.8516 13.6758 14.9232 13.7083 14.9883 13.7539C15.1478 13.8613 15.2275 13.9932 15.2275 14.1494C15.2275 14.3024 15.2048 14.431 15.1592 14.5352C15.1169 14.6361 15.0599 14.7256 14.9883 14.8037ZM13.9873 20.0869C14.0719 20.0869 14.1143 20.1423 14.1143 20.2529C14.1143 20.3994 14.0475 20.5508 13.9141 20.707C13.7188 20.9349 13.4567 21.0488 13.1279 21.0488C12.7503 21.0488 12.4915 20.8958 12.3516 20.5898C12.2995 20.4824 12.2734 20.3522 12.2734 20.1992C12.2734 20.0462 12.2995 19.877 12.3516 19.6914C12.4069 19.5026 12.4736 19.3057 12.5518 19.1006C12.6331 18.8923 12.721 18.6823 12.8154 18.4707L13.0742 17.8555C13.263 17.3965 13.3574 17.0938 13.3574 16.9473C13.3574 16.8008 13.3411 16.7048 13.3086 16.6592C13.2793 16.6104 13.2467 16.5729 13.2109 16.5469L13.1133 16.4785C13.0807 16.4557 13.0645 16.4167 13.0645 16.3613C13.0645 16.3027 13.0856 16.2474 13.1279 16.1953C13.1735 16.1432 13.2321 16.0977 13.3037 16.0586C13.4502 15.9837 13.6211 15.9463 13.8164 15.9463C14.2949 15.9463 14.5342 16.0716 14.5342 16.3223C14.5342 16.6152 14.4577 16.9505 14.3047 17.3281C14.1517 17.7025 14.0215 18.0052 13.9141 18.2363L13.6211 18.9102C13.4062 19.4049 13.2988 19.7614 13.2988 19.9795C13.2988 20.1227 13.3704 20.1943 13.5137 20.1943C13.6536 20.1943 13.7594 20.1764 13.8311 20.1406C13.9027 20.1048 13.9548 20.0869 13.9873 20.0869ZM18.8945 16.8691C18.7057 16.8691 18.3607 17.1426 17.8594 17.6895C17.485 18.1159 17.2132 18.4365 17.0439 18.6514L16.6045 19.208C16.4157 19.5661 16.2676 19.8639 16.1602 20.1016L15.8965 20.668C15.8281 20.8079 15.7679 20.9072 15.7158 20.9658C15.667 21.0212 15.5986 21.0488 15.5107 21.0488C15.4261 21.0488 15.3431 21.0326 15.2617 21C15.1836 20.9707 15.1152 20.9316 15.0566 20.8828C14.9329 20.7786 14.8711 20.6647 14.8711 20.541C14.8711 20.4922 14.9069 20.3962 14.9785 20.2529L15.1641 19.8574C15.2227 19.7402 15.291 19.5905 15.3691 19.4082L15.6426 18.7393C16.0267 17.779 16.2188 17.1589 16.2188 16.8789C16.2188 16.7292 16.1699 16.6185 16.0723 16.5469L15.9746 16.4785C15.9421 16.4557 15.9258 16.4167 15.9258 16.3613C15.9258 16.3027 15.9469 16.2474 15.9893 16.1953C16.0348 16.1432 16.0934 16.0977 16.165 16.0586C16.3115 15.9837 16.458 15.9463 16.6045 15.9463C16.7542 15.9463 16.8714 15.9626 16.9561 15.9951C17.0407 16.0277 17.1139 16.0716 17.1758 16.127C17.2995 16.2409 17.3613 16.3597 17.3613 16.4834C17.3613 16.6071 17.3451 16.7324 17.3125 16.8594C17.2799 16.9831 17.2393 17.11 17.1904 17.2402C17.1416 17.3672 17.0895 17.4909 17.0342 17.6113C16.904 17.8913 16.8226 18.0638 16.79 18.1289C16.7607 18.1908 16.7526 18.2135 16.7656 18.1973C17.3613 17.4258 17.7194 16.9701 17.8398 16.8301C18.0905 16.5404 18.2858 16.3418 18.4258 16.2344C18.6829 16.0423 18.9255 15.9463 19.1533 15.9463C19.3844 15.9463 19.5684 16.0179 19.7051 16.1611C19.8418 16.3044 19.9102 16.4932 19.9102 16.7275C19.9102 16.9326 19.8581 17.1735 19.7539 17.4502C19.6497 17.7269 19.5798 17.9206 19.5439 18.0312L20.2617 17.084L20.6621 16.6055C20.903 16.3353 21.1146 16.1579 21.2969 16.0732C21.4792 15.9886 21.6273 15.9463 21.7412 15.9463C21.8584 15.9463 21.9723 15.9674 22.083 16.0098C22.1969 16.0521 22.293 16.1123 22.3711 16.1904C22.5371 16.3499 22.6201 16.5615 22.6201 16.8252C22.6201 17.0791 22.5615 17.3395 22.4443 17.6064C22.3271 17.8734 22.2246 18.0931 22.1367 18.2656C22.0488 18.4349 21.9642 18.6058 21.8828 18.7783C21.6452 19.2959 21.5264 19.68 21.5264 19.9307C21.5264 20.1064 21.598 20.1943 21.7412 20.1943C21.8779 20.1943 22.0016 20.165 22.1123 20.1064C22.2262 20.0479 22.2995 20.0186 22.332 20.0186C22.4004 20.0186 22.4346 20.0527 22.4346 20.1211C22.4346 20.4108 22.2865 20.6533 21.9902 20.8486C21.7917 20.9821 21.6094 21.0488 21.4434 21.0488C21.2806 21.0488 21.1488 21.0293 21.0479 20.9902C20.9469 20.9512 20.8558 20.8893 20.7744 20.8047C20.5921 20.6159 20.501 20.3799 20.501 20.0967C20.501 19.8135 20.5368 19.5531 20.6084 19.3154C20.68 19.0778 20.7646 18.8483 20.8623 18.627C20.96 18.4023 21.0576 18.1973 21.1553 18.0117C21.2562 17.8229 21.3327 17.6732 21.3848 17.5625C21.4889 17.3346 21.541 17.167 21.541 17.0596C21.541 16.9326 21.4743 16.8691 21.3408 16.8691C21.165 16.8691 20.8493 17.1605 20.3936 17.7432C20.0485 18.1956 19.8092 18.5212 19.6758 18.7197L19.3389 19.208C19.1501 19.5661 19.0052 19.8639 18.9043 20.1016L18.6553 20.668C18.5934 20.8079 18.5397 20.9072 18.4941 20.9658C18.4486 21.0212 18.3851 21.0488 18.3037 21.0488C18.2223 21.0488 18.1426 21.0358 18.0645 21.0098C17.9896 20.9837 17.9245 20.9495 17.8691 20.9072C17.7422 20.8128 17.6787 20.7135 17.6787 20.6094C17.6787 20.502 17.7129 20.3571 17.7812 20.1748C17.8529 19.9893 17.9408 19.7826 18.0449 19.5547L18.7285 18.1094C18.9727 17.5723 19.0947 17.2321 19.0947 17.0889C19.0947 16.9424 19.028 16.8691 18.8945 16.8691ZM19.3779 18.2461C19.3812 18.2461 19.3828 18.2445 19.3828 18.2412L19.3877 18.2314C19.3812 18.238 19.3779 18.2428 19.3779 18.2461Z" fill="black"/>
<path d="M14.9883 14.8037L15.1328 14.942L15.1357 14.9389L14.9883 14.8037ZM14.7441 14.9893L14.8336 15.1682L14.8386 15.1656L14.7441 14.9893ZM14.4561 15.0771L14.4753 15.2763L14.4816 15.2755L14.4561 15.0771ZM14.168 15.0283L14.0812 15.2085L14.0837 15.2097L14.168 15.0283ZM13.9385 14.8477L14.0921 14.7196L14.0901 14.7172L13.9385 14.8477ZM13.8066 13.9834L13.6392 13.8739L13.6382 13.8756L13.8066 13.9834ZM14.0117 13.7783L14.1195 13.9468L14.1202 13.9463L14.0117 13.7783ZM14.7734 13.6562L14.723 13.8498L14.7249 13.8503L14.7734 13.6562ZM14.9883 13.7539L14.8736 13.9178L14.8766 13.9198L14.9883 13.7539ZM15.1592 14.5352L14.9759 14.455L14.9747 14.4578L15.1592 14.5352ZM13.9141 20.707L14.0659 20.8372L14.0661 20.8369L13.9141 20.707ZM12.3516 20.5898L12.5335 20.5066L12.5315 20.5026L12.3516 20.5898ZM12.3516 19.6914L12.1596 19.6351L12.159 19.6374L12.3516 19.6914ZM12.5518 19.1006L12.3655 19.0278L12.3649 19.0294L12.5518 19.1006ZM12.8154 18.4707L12.9981 18.5522L12.9998 18.5482L12.8154 18.4707ZM13.0742 17.8555L13.2586 17.933L13.2592 17.9316L13.0742 17.8555ZM13.3086 16.6592L13.1371 16.7621L13.1412 16.7689L13.1458 16.7754L13.3086 16.6592ZM13.2109 16.5469L13.3286 16.3851L13.3256 16.383L13.2109 16.5469ZM13.1133 16.4785L13.228 16.3147L13.1133 16.4785ZM13.1279 16.1953L12.9773 16.0635L12.9727 16.0692L13.1279 16.1953ZM13.3037 16.0586L13.2127 15.8804L13.2079 15.883L13.3037 16.0586ZM14.3047 17.3281L14.4898 17.4038L14.4901 17.4032L14.3047 17.3281ZM13.9141 18.2363L13.7326 18.152L13.7306 18.1566L13.9141 18.2363ZM13.6211 18.9102L13.4377 18.8304L13.4376 18.8305L13.6211 18.9102ZM14.8438 14.6655C14.7867 14.7251 14.7222 14.7741 14.6497 14.813L14.8386 15.1656C14.9484 15.1067 15.0466 15.032 15.1328 14.942L14.8438 14.6655ZM14.6547 14.8104C14.5836 14.8459 14.5091 14.8686 14.4305 14.8788L14.4816 15.2755C14.6048 15.2596 14.7224 15.2237 14.8336 15.1681L14.6547 14.8104ZM14.4368 14.8781C14.371 14.8844 14.3107 14.8741 14.2522 14.8469L14.0837 15.2097C14.2075 15.2672 14.3393 15.2894 14.4753 15.2762L14.4368 14.8781ZM14.2547 14.8481C14.1937 14.8187 14.1397 14.7767 14.0921 14.7196L13.7848 14.9757C13.8674 15.0748 13.9664 15.1533 14.0812 15.2085L14.2547 14.8481ZM14.0901 14.7172C13.972 14.5799 13.9285 14.46 13.9285 14.3545H13.5285C13.5285 14.581 13.625 14.7899 13.7868 14.9781L14.0901 14.7172ZM13.9285 14.3545C13.9285 14.2024 13.9536 14.1247 13.9751 14.0912L13.6382 13.8756C13.5555 14.0048 13.5285 14.1745 13.5285 14.3545H13.9285ZM13.974 14.0928C14.0146 14.0307 14.0631 13.9829 14.1195 13.9468L13.9039 13.6099C13.7976 13.6779 13.7093 13.7668 13.6392 13.8739L13.974 14.0928ZM14.1202 13.9463C14.2554 13.859 14.3645 13.827 14.4512 13.827V13.427C14.2644 13.427 14.0805 13.4958 13.9032 13.6103L14.1202 13.9463ZM14.4512 13.827C14.5855 13.827 14.6728 13.8367 14.723 13.8498L14.8239 13.4627C14.7243 13.4368 14.5968 13.427 14.4512 13.427V13.827ZM14.7249 13.8503C14.7797 13.864 14.8288 13.8864 14.8736 13.9178L15.103 13.5901C15.0176 13.5303 14.9235 13.4876 14.8219 13.4622L14.7249 13.8503ZM14.8766 13.9198C14.9954 13.9998 15.0275 14.0754 15.0275 14.1494H15.4275C15.4275 13.9109 15.3002 13.7229 15.1 13.588L14.8766 13.9198ZM15.0275 14.1494C15.0275 14.2838 15.0073 14.3832 14.9759 14.455L15.3424 14.6153C15.4022 14.4788 15.4275 14.321 15.4275 14.1494H15.0275ZM14.9747 14.4578C14.941 14.5382 14.8964 14.608 14.8409 14.6686L15.1357 14.9389C15.2234 14.8432 15.2927 14.734 15.3436 14.6125L14.9747 14.4578ZM13.9873 20.2869C13.9869 20.2869 13.9772 20.2869 13.9629 20.2806C13.9475 20.2739 13.9336 20.2629 13.9236 20.2499C13.9145 20.238 13.9124 20.2292 13.9125 20.2297C13.9127 20.2304 13.9143 20.2374 13.9143 20.2529H14.3143C14.3143 20.1777 14.3009 20.0847 14.2414 20.0069C14.1742 19.919 14.077 19.8869 13.9873 19.8869V20.2869ZM13.9143 20.2529C13.9143 20.3357 13.8769 20.4426 13.762 20.5771L14.0661 20.8369C14.2182 20.6589 14.3143 20.4631 14.3143 20.2529H13.9143ZM13.7622 20.5769C13.6088 20.7558 13.4046 20.8488 13.1279 20.8488V21.2488C13.5088 21.2488 13.8287 21.1139 14.0659 20.8372L13.7622 20.5769ZM13.1279 20.8488C12.9659 20.8488 12.844 20.8161 12.7524 20.7619C12.6623 20.7086 12.5885 20.6271 12.5334 20.5066L12.1697 20.673C12.2546 20.8586 12.3802 21.0065 12.5489 21.1062C12.716 21.2051 12.9124 21.2488 13.1279 21.2488V20.8488ZM12.5315 20.5026C12.4958 20.4289 12.4734 20.3302 12.4734 20.1992H12.0734C12.0734 20.3742 12.1032 20.5359 12.1716 20.6771L12.5315 20.5026ZM12.4734 20.1992C12.4734 20.0685 12.4958 19.9177 12.5441 19.7455L12.159 19.6374C12.1032 19.8362 12.0734 20.0239 12.0734 20.1992H12.4734ZM12.5435 19.7477C12.5972 19.5644 12.6622 19.3725 12.7387 19.1718L12.3649 19.0294C12.2851 19.2388 12.2166 19.4408 12.1596 19.6352L12.5435 19.7477ZM12.738 19.1734C12.8182 18.9681 12.9049 18.761 12.9981 18.5522L12.6328 18.3892C12.5371 18.6036 12.448 18.8164 12.3655 19.0278L12.738 19.1734ZM12.9998 18.5482L13.2586 17.933L12.8899 17.7779L12.6311 18.3932L12.9998 18.5482ZM13.2592 17.9316C13.3547 17.6993 13.4279 17.5029 13.4776 17.3437C13.5254 17.1901 13.5574 17.053 13.5574 16.9473H13.1574C13.1574 16.988 13.1422 17.0755 13.0957 17.2246C13.0509 17.3682 12.9825 17.5527 12.8893 17.7794L13.2592 17.9316ZM13.5574 16.9473C13.5574 16.8678 13.5531 16.795 13.5424 16.732C13.5324 16.6731 13.5137 16.6023 13.4713 16.5429L13.1458 16.7754C13.136 16.7616 13.1417 16.7617 13.148 16.7988C13.1536 16.8318 13.1574 16.8802 13.1574 16.9473H13.5574ZM13.4801 16.5563C13.4408 16.4907 13.3914 16.4308 13.3286 16.3851L13.0933 16.7086C13.1021 16.715 13.1178 16.73 13.1371 16.7621L13.4801 16.5563ZM13.3256 16.383L13.228 16.3147L12.9986 16.6424L13.0962 16.7107L13.3256 16.383ZM13.228 16.3147C13.2448 16.3265 13.2558 16.3421 13.2613 16.3552C13.2659 16.3663 13.2645 16.3703 13.2645 16.3613H12.8645C12.8645 16.4542 12.8933 16.5687 12.9986 16.6424L13.228 16.3147ZM13.2645 16.3613C13.2645 16.3552 13.2654 16.3433 13.2832 16.3214L12.9727 16.0692C12.9059 16.1515 12.8645 16.2502 12.8645 16.3613H13.2645ZM13.2784 16.327C13.306 16.2955 13.3449 16.2639 13.3995 16.2342L13.2079 15.883C13.1193 15.9314 13.041 15.9909 12.9774 16.0636L13.2784 16.327ZM13.3947 16.2367C13.5082 16.1787 13.6468 16.1463 13.8164 16.1463V15.7463C13.5953 15.7463 13.3922 15.7888 13.2127 15.8805L13.3947 16.2367ZM13.8164 16.1463C14.0447 16.1463 14.1853 16.1773 14.2619 16.2174C14.2973 16.236 14.3131 16.2533 14.3206 16.2652C14.3276 16.2762 14.3342 16.2927 14.3342 16.3223H14.7342C14.7342 16.2265 14.7109 16.1334 14.6581 16.0504C14.6058 15.9682 14.5318 15.9072 14.4475 15.8631C14.285 15.778 14.0666 15.7463 13.8164 15.7463V16.1463ZM14.3342 16.3223C14.3342 16.5815 14.2662 16.8906 14.1193 17.253L14.4901 17.4032C14.6492 17.0104 14.7342 16.6489 14.7342 16.3223H14.3342ZM14.1196 17.2525C13.9671 17.6254 13.8383 17.9249 13.7327 18.152L14.0954 18.3206C14.2047 18.0855 14.3362 17.7796 14.4898 17.4038L14.1196 17.2525ZM13.7306 18.1566L13.4377 18.8304L13.8045 18.9899L14.0975 18.3161L13.7306 18.1566ZM13.4376 18.8305C13.2234 19.3239 13.0988 19.7151 13.0988 19.9795H13.4988C13.4988 19.8076 13.5891 19.486 13.8045 18.9898L13.4376 18.8305ZM13.0988 19.9795C13.0988 20.0819 13.1246 20.1955 13.2111 20.282C13.2977 20.3686 13.4112 20.3943 13.5137 20.3943V19.9943C13.4939 19.9943 13.4848 19.9918 13.4829 19.9912C13.4822 19.9909 13.4833 19.9912 13.4857 19.9926C13.488 19.9941 13.491 19.9962 13.494 19.9992C13.4969 20.0022 13.4991 20.0051 13.5005 20.0075C13.5019 20.0098 13.5022 20.011 13.502 20.0102C13.5014 20.0084 13.4988 19.9992 13.4988 19.9795H13.0988ZM13.5137 20.3943C13.6647 20.3943 13.8075 20.376 13.9205 20.3195L13.7416 19.9617C13.7113 19.9769 13.6426 19.9943 13.5137 19.9943V20.3943ZM13.9205 20.3195C13.9516 20.304 13.974 20.2946 13.9888 20.2895C13.9961 20.287 13.9999 20.2861 14.0006 20.2859C14.0017 20.2857 13.9968 20.2869 13.9873 20.2869V19.8869C13.9388 19.8869 13.8934 19.8993 13.8588 19.9112C13.8216 19.924 13.7821 19.9415 13.7416 19.9617L13.9205 20.3195ZM17.8594 17.6895L17.7119 17.5543L17.7091 17.5575L17.8594 17.6895ZM17.0439 18.6514L17.2009 18.7753L17.201 18.7751L17.0439 18.6514ZM16.6045 19.208L16.4475 19.0841L16.4361 19.0985L16.4276 19.1147L16.6045 19.208ZM16.1602 20.1016L16.3415 20.186L16.3424 20.1839L16.1602 20.1016ZM15.8965 20.668L16.0762 20.7558L16.0778 20.7524L15.8965 20.668ZM15.7158 20.9658L15.5663 20.8329L15.5659 20.8335L15.7158 20.9658ZM15.2617 21L15.336 20.8143L15.3319 20.8127L15.2617 21ZM15.0566 20.8828L14.9278 21.0358L14.9286 21.0365L15.0566 20.8828ZM14.9785 20.2529L15.1575 20.3424L15.1596 20.3379L14.9785 20.2529ZM15.1641 19.8574L14.9851 19.768L14.983 19.7725L15.1641 19.8574ZM15.3691 19.4082L15.553 19.487L15.5543 19.4839L15.3691 19.4082ZM15.6426 18.7393L15.8277 18.8149L15.8283 18.8135L15.6426 18.7393ZM16.0723 16.5469L16.1906 16.3856L16.187 16.383L16.0723 16.5469ZM15.9746 16.4785L16.0893 16.3147L15.9746 16.4785ZM15.9893 16.1953L15.8386 16.0635L15.834 16.0692L15.9893 16.1953ZM16.165 16.0586L16.074 15.8804L16.0693 15.883L16.165 16.0586ZM16.9561 15.9951L16.8843 16.1818L16.9561 15.9951ZM17.1758 16.127L17.3113 15.9798L17.3091 15.9779L17.1758 16.127ZM17.3125 16.8594L17.5059 16.9103L17.5062 16.9091L17.3125 16.8594ZM17.1904 17.2402L17.3771 17.312L17.3777 17.3105L17.1904 17.2402ZM17.0342 17.6113L17.2155 17.6957L17.2159 17.6948L17.0342 17.6113ZM16.79 18.1289L16.6111 18.0394L16.6093 18.0433L16.79 18.1289ZM16.7656 18.1973L16.9218 18.3222L16.9239 18.3195L16.7656 18.1973ZM17.8398 16.8301L17.6886 16.6992L17.6882 16.6996L17.8398 16.8301ZM18.4258 16.2344L18.3061 16.0741L18.304 16.0757L18.4258 16.2344ZM19.5439 18.0312L19.3537 17.9697L19.7034 18.152L19.5439 18.0312ZM20.2617 17.084L20.1082 16.9555L20.1023 16.9632L20.2617 17.084ZM20.6621 16.6055L20.5128 16.4723L20.5087 16.4771L20.6621 16.6055ZM21.2969 16.0732L21.2127 15.8918L21.2969 16.0732ZM22.083 16.0098L22.0116 16.1966L22.0134 16.1973L22.083 16.0098ZM22.3711 16.1904L22.2296 16.3319L22.2325 16.3347L22.3711 16.1904ZM22.1367 18.2656L22.3142 18.3578L22.3149 18.3564L22.1367 18.2656ZM21.8828 18.7783L21.7019 18.693L21.7011 18.6949L21.8828 18.7783ZM22.1123 20.1064L22.0208 19.9286L22.0187 19.9297L22.1123 20.1064ZM21.9902 20.8486L21.8801 20.6817L21.8787 20.6826L21.9902 20.8486ZM20.7744 20.8047L20.9186 20.6661L20.9183 20.6658L20.7744 20.8047ZM20.8623 18.627L21.0453 18.7077L21.0457 18.7067L20.8623 18.627ZM21.1553 18.0117L20.9789 17.9174L20.9783 17.9186L21.1553 18.0117ZM21.3848 17.5625L21.5657 17.6477L21.5667 17.6457L21.3848 17.5625ZM20.3936 17.7432L20.236 17.6199L20.2345 17.6219L20.3936 17.7432ZM19.6758 18.7197L19.8404 18.8333L19.8418 18.8313L19.6758 18.7197ZM19.3389 19.208L19.1743 19.0944L19.1675 19.1042L19.162 19.1147L19.3389 19.208ZM18.9043 20.1016L19.0874 20.1821L19.0884 20.1797L18.9043 20.1016ZM18.6553 20.668L18.8382 20.7488L18.8384 20.7485L18.6553 20.668ZM18.4941 20.9658L18.6486 21.093L18.652 21.0886L18.4941 20.9658ZM18.0645 21.0098L17.9987 21.1987L18.0012 21.1995L18.0645 21.0098ZM17.8691 20.9072L17.9906 20.7483L17.9885 20.7467L17.8691 20.9072ZM17.7812 20.1748L17.5947 20.1028L17.594 20.1046L17.7812 20.1748ZM18.0449 19.5547L17.8641 19.4692L17.863 19.4715L18.0449 19.5547ZM18.7285 18.1094L18.9093 18.1949L18.9106 18.1921L18.7285 18.1094ZM19.3779 18.2461H19.1779V18.4461H19.3779V18.2461ZM19.3828 18.2412L19.2039 18.1518L19.1828 18.194V18.2412H19.3828ZM19.3877 18.2314L19.5666 18.3209L19.2463 18.09L19.3877 18.2314ZM18.8945 16.6691C18.8023 16.6691 18.7125 16.7014 18.6325 16.7424C18.55 16.7846 18.4622 16.8444 18.3699 16.9175C18.1854 17.0637 17.9656 17.2776 17.7119 17.5543L18.0068 17.8246C18.2544 17.5545 18.4578 17.3582 18.6184 17.231C18.6986 17.1674 18.7638 17.1245 18.8148 17.0984C18.84 17.0855 18.8596 17.0778 18.8739 17.0735C18.8883 17.0692 18.8947 17.0691 18.8945 17.0691V16.6691ZM17.7091 17.5575C17.3343 17.9844 17.0596 18.3084 16.8868 18.5276L17.201 18.7751C17.3669 18.5647 17.6357 18.2474 18.0097 17.8214L17.7091 17.5575ZM16.887 18.5274L16.4475 19.0841L16.7615 19.3319L17.2009 18.7753L16.887 18.5274ZM16.4276 19.1147C16.2378 19.4747 16.0876 19.7764 15.9779 20.0192L16.3424 20.1839C16.4475 19.9514 16.5936 19.6575 16.7814 19.3013L16.4276 19.1147ZM15.9788 20.0172L15.7152 20.5836L16.0778 20.7524L16.3415 20.186L15.9788 20.0172ZM15.7168 20.5802C15.6502 20.7166 15.5996 20.7955 15.5663 20.8329L15.8653 21.0987C15.9362 21.0189 16.0061 20.8993 16.0762 20.7557L15.7168 20.5802ZM15.5659 20.8335C15.5623 20.8376 15.5532 20.8488 15.5107 20.8488V21.2488C15.644 21.2488 15.7717 21.2048 15.8658 21.0981L15.5659 20.8335ZM15.5107 20.8488C15.4525 20.8488 15.3946 20.8377 15.336 20.8143L15.1874 21.1857C15.2916 21.2274 15.3998 21.2488 15.5107 21.2488V20.8488ZM15.3319 20.8127C15.2729 20.7906 15.2245 20.7623 15.1847 20.7292L14.9286 21.0365C15.006 21.1009 15.0943 21.1508 15.1915 21.1873L15.3319 20.8127ZM15.1855 20.7298C15.0921 20.6512 15.0711 20.5887 15.0711 20.541H14.6711C14.6711 20.7407 14.7738 20.9061 14.9278 21.0358L15.1855 20.7298ZM15.0711 20.541C15.0711 20.5511 15.0696 20.5533 15.072 20.5435C15.0741 20.535 15.0782 20.5215 15.0853 20.5022C15.0998 20.4635 15.1232 20.4107 15.1574 20.3424L14.7996 20.1635C14.7622 20.2384 14.7319 20.3052 14.7106 20.3625C14.6914 20.4138 14.6711 20.4785 14.6711 20.541H15.0711ZM15.1596 20.3379L15.3451 19.9424L14.983 19.7725L14.7975 20.168L15.1596 20.3379ZM15.3429 19.9469C15.4039 19.8249 15.474 19.6713 15.553 19.487L15.1853 19.3294C15.108 19.5097 15.0414 19.6556 14.9852 19.768L15.3429 19.9469ZM15.5543 19.4839L15.8277 18.8149L15.4574 18.6636L15.184 19.3325L15.5543 19.4839ZM15.8283 18.8135C16.0213 18.331 16.1675 17.9304 16.2658 17.6131C16.362 17.3024 16.4188 17.0519 16.4188 16.8789H16.0187C16.0187 16.9858 15.9795 17.1854 15.8837 17.4948C15.7899 17.7977 15.648 18.1873 15.4569 18.665L15.8283 18.8135ZM16.4188 16.8789C16.4188 16.6823 16.3518 16.5038 16.1905 16.3856L15.954 16.7082C15.9881 16.7331 16.0187 16.776 16.0187 16.8789H16.4188ZM16.187 16.383L16.0893 16.3147L15.8599 16.6424L15.9576 16.7107L16.187 16.383ZM16.0893 16.3147C16.1062 16.3265 16.1171 16.3421 16.1226 16.3552C16.1272 16.3663 16.1258 16.3703 16.1258 16.3613H15.7258C15.7258 16.4542 15.7546 16.5687 15.8599 16.6424L16.0893 16.3147ZM16.1258 16.3613C16.1258 16.3552 16.1267 16.3433 16.1445 16.3214L15.834 16.0692C15.7672 16.1515 15.7258 16.2502 15.7258 16.3613H16.1258ZM16.1398 16.327C16.1673 16.2955 16.2063 16.2639 16.2608 16.2342L16.0693 15.883C15.9806 15.9314 15.9023 15.9909 15.8387 16.0636L16.1398 16.327ZM16.2561 16.2367C16.3779 16.1744 16.4934 16.1463 16.6045 16.1463V15.7463C16.4226 15.7463 16.2452 15.793 16.074 15.8805L16.2561 16.2367ZM16.6045 16.1463C16.7436 16.1463 16.8327 16.1619 16.8843 16.1818L17.0279 15.8084C16.9102 15.7632 16.7649 15.7463 16.6045 15.7463V16.1463ZM16.8843 16.1818C16.9484 16.2064 17.0002 16.2383 17.0424 16.276L17.3091 15.9779C17.2276 15.905 17.133 15.8489 17.0279 15.8084L16.8843 16.1818ZM17.0403 16.2741C17.1382 16.3643 17.1613 16.4335 17.1613 16.4834H17.5613C17.5613 16.2859 17.4607 16.1175 17.3113 15.9798L17.0403 16.2741ZM17.1613 16.4834C17.1613 16.5894 17.1474 16.698 17.1188 16.8097L17.5062 16.9091C17.5427 16.7668 17.5613 16.6248 17.5613 16.4834H17.1613ZM17.1191 16.8085C17.0884 16.9251 17.0498 17.0456 17.0032 17.17L17.3777 17.3105C17.4287 17.1745 17.4715 17.041 17.5059 16.9103L17.1191 16.8085ZM17.0038 17.1684C16.9564 17.2915 16.906 17.4113 16.8524 17.5278L17.2159 17.6948C17.2731 17.5704 17.3268 17.4428 17.3771 17.312L17.0038 17.1684ZM16.8528 17.527C16.7221 17.808 16.6421 17.9775 16.6112 18.0395L16.9689 18.2183C17.003 18.1501 17.0858 17.9746 17.2155 17.6957L16.8528 17.527ZM16.6093 18.0433C16.5952 18.0731 16.5815 18.1029 16.5736 18.1251C16.5716 18.1306 16.5676 18.1423 16.5645 18.1564C16.5631 18.1628 16.5601 18.1774 16.5597 18.1961C16.5595 18.2037 16.5564 18.2643 16.5998 18.3221C16.627 18.3584 16.6679 18.387 16.7179 18.3978C16.763 18.4076 16.8003 18.3996 16.8215 18.3928C16.86 18.3805 16.8847 18.3594 16.8906 18.3545C16.9073 18.3404 16.9187 18.3261 16.9218 18.3222L16.6095 18.0723C16.6104 18.0711 16.6125 18.0685 16.6156 18.0652C16.6181 18.0624 16.6241 18.0559 16.6329 18.0486C16.6378 18.0445 16.6617 18.0239 16.6996 18.0118C16.7205 18.0051 16.7575 17.9972 16.8024 18.0069C16.8521 18.0176 16.8928 18.0461 16.9198 18.0821C16.9629 18.1396 16.9597 18.1995 16.9596 18.2061C16.9591 18.2237 16.9563 18.237 16.9553 18.2418C16.9539 18.248 16.9526 18.2527 16.9519 18.2549C16.9511 18.2573 16.9505 18.259 16.9503 18.2597C16.9498 18.261 16.9508 18.2582 16.9549 18.2489C16.9587 18.2404 16.9639 18.2291 16.9708 18.2145L16.6093 18.0433ZM16.9239 18.3195C17.5214 17.5457 17.8754 17.0954 17.9914 16.9605L17.6882 16.6996C17.5634 16.8447 17.2012 17.3059 16.6073 18.075L16.9239 18.3195ZM17.9911 16.9609C18.2407 16.6724 18.4248 16.4872 18.5475 16.393L18.304 16.0757C18.1468 16.1964 17.9403 16.4083 17.6886 16.6992L17.9911 16.9609ZM18.5455 16.3946C18.7818 16.2181 18.9831 16.1463 19.1533 16.1463V15.7463C18.8679 15.7463 18.5841 15.8665 18.3061 16.0741L18.5455 16.3946ZM19.1533 16.1463C19.3397 16.1463 19.4678 16.2022 19.5604 16.2992L19.8497 16.023C19.6689 15.8336 19.4292 15.7463 19.1533 15.7463V16.1463ZM19.5604 16.2992C19.6552 16.3985 19.7102 16.5345 19.7102 16.7275H20.1102C20.1102 16.4518 20.0284 16.2102 19.8497 16.023L19.5604 16.2992ZM19.7102 16.7275C19.7102 16.9004 19.6658 17.1165 19.5667 17.3797L19.9411 17.5207C20.0503 17.2305 20.1102 16.9648 20.1102 16.7275H19.7102ZM19.5667 17.3797C19.4626 17.6562 19.3911 17.854 19.3537 17.9697L19.7342 18.0928C19.7684 17.9872 19.8368 17.7975 19.9411 17.5207L19.5667 17.3797ZM19.7034 18.152L20.4211 17.2048L20.1023 16.9632L19.3845 17.9105L19.7034 18.152ZM20.4151 17.2123L20.8155 16.7338L20.5087 16.4771L20.1083 16.9556L20.4151 17.2123ZM20.8114 16.7386C21.0463 16.475 21.2361 16.322 21.3811 16.2546L21.2127 15.8918C20.9931 15.9938 20.7596 16.1955 20.5128 16.4724L20.8114 16.7386ZM21.3811 16.2546C21.5542 16.1743 21.6707 16.1463 21.7412 16.1463V15.7463C21.5838 15.7463 21.4042 15.8029 21.2127 15.8918L21.3811 16.2546ZM21.7412 16.1463C21.8337 16.1463 21.9234 16.1629 22.0116 16.1966L22.1544 15.823C22.0212 15.772 21.8831 15.7463 21.7412 15.7463V16.1463ZM22.0134 16.1973C22.1031 16.2306 22.1738 16.276 22.2297 16.3319L22.5125 16.049C22.4121 15.9486 22.2908 15.8736 22.1526 15.8223L22.0134 16.1973ZM22.2325 16.3347C22.3535 16.4509 22.4201 16.6073 22.4201 16.8252H22.8201C22.8201 16.5157 22.7207 16.249 22.5097 16.0462L22.2325 16.3347ZM22.4201 16.8252C22.4201 17.0476 22.3689 17.2807 22.2612 17.526L22.6275 17.6868C22.7541 17.3983 22.8201 17.1106 22.8201 16.8252H22.4201ZM22.2612 17.526C22.1449 17.791 22.044 18.007 21.9585 18.1748L22.3149 18.3564C22.4052 18.1792 22.5094 17.9557 22.6275 17.6868L22.2612 17.526ZM21.9592 18.1735C21.8702 18.345 21.7844 18.5182 21.7019 18.693L22.0637 18.8636C22.144 18.6934 22.2275 18.5248 22.3142 18.3578L21.9592 18.1735ZM21.7011 18.6949C21.4629 19.2135 21.3264 19.6326 21.3264 19.9307H21.7264C21.7264 19.7274 21.8274 19.3783 22.0646 18.8618L21.7011 18.6949ZM21.3264 19.9307C21.3264 20.0406 21.3479 20.1601 21.425 20.2548C21.5085 20.3572 21.6267 20.3943 21.7412 20.3943V19.9943C21.7255 19.9943 21.7209 19.9919 21.7229 19.9927C21.7263 19.9941 21.7314 19.9975 21.7351 20.0021C21.7382 20.0058 21.7359 20.005 21.7328 19.9936C21.7296 19.9818 21.7264 19.9617 21.7264 19.9307H21.3264ZM21.7412 20.3943C21.9075 20.3943 22.0638 20.3584 22.2059 20.2832L22.0187 19.9297C21.9395 19.9716 21.8484 19.9943 21.7412 19.9943V20.3943ZM22.2038 20.2843C22.2581 20.2564 22.2986 20.2375 22.327 20.2262C22.3411 20.2206 22.3496 20.2178 22.3534 20.2168C22.3594 20.2151 22.3501 20.2186 22.332 20.2186V19.8186C22.2731 19.8186 22.2144 19.8405 22.1784 19.8548C22.1335 19.8728 22.0804 19.8979 22.0208 19.9286L22.2038 20.2843ZM22.332 20.2186C22.3354 20.2186 22.3012 20.2193 22.2675 20.1856C22.2339 20.152 22.2346 20.1177 22.2346 20.1211H22.6346C22.6346 20.0561 22.6182 19.9706 22.5504 19.9028C22.4825 19.8349 22.397 19.8186 22.332 19.8186V20.2186ZM22.2346 20.1211C22.2346 20.328 22.1347 20.5138 21.8801 20.6817L22.1003 21.0156C22.4383 20.7928 22.6346 20.4937 22.6346 20.1211H22.2346ZM21.8787 20.6826C21.6992 20.8033 21.5557 20.8488 21.4434 20.8488V21.2488C21.6631 21.2488 21.8841 21.1609 22.1018 21.0146L21.8787 20.6826ZM21.4434 20.8488C21.2941 20.8488 21.1894 20.8306 21.1201 20.8037L20.9757 21.1767C21.1081 21.228 21.2671 21.2488 21.4434 21.2488V20.8488ZM21.1201 20.8037C21.0486 20.7761 20.9815 20.7315 20.9186 20.6661L20.6302 20.9433C20.7301 21.0472 20.8453 21.1263 20.9757 21.1767L21.1201 20.8037ZM20.9183 20.6658C20.775 20.5174 20.701 20.3326 20.701 20.0967H20.301C20.301 20.4272 20.4092 20.7144 20.6305 20.9436L20.9183 20.6658ZM20.701 20.0967C20.701 19.8303 20.7346 19.5896 20.7999 19.3731L20.4169 19.2577C20.3389 19.5165 20.301 19.7966 20.301 20.0967H20.701ZM20.7999 19.3731C20.8692 19.1431 20.951 18.9214 21.0453 18.7077L20.6793 18.5462C20.5783 18.7753 20.4908 19.0125 20.4169 19.2577L20.7999 19.3731ZM21.0457 18.7067C21.1417 18.4859 21.2373 18.2854 21.3323 18.1049L20.9783 17.9186C20.878 18.1092 20.7782 18.3188 20.6789 18.5472L21.0457 18.7067ZM21.3317 18.106C21.4332 17.9161 21.5115 17.7629 21.5657 17.6477L21.2038 17.4773C21.1538 17.5835 21.0792 17.7298 20.9789 17.9174L21.3317 18.106ZM21.5667 17.6457C21.671 17.4175 21.741 17.2146 21.741 17.0596H21.341C21.341 17.1194 21.3069 17.2518 21.2029 17.4793L21.5667 17.6457ZM21.741 17.0596C21.741 16.9626 21.715 16.8539 21.6288 16.7718C21.5444 16.6916 21.436 16.6691 21.3408 16.6691V17.0691C21.359 17.0691 21.3669 17.0714 21.368 17.0717C21.3681 17.0717 21.3613 17.0695 21.3531 17.0617C21.3493 17.058 21.3461 17.054 21.3437 17.0502C21.3413 17.0465 21.3402 17.0436 21.3398 17.0424C21.339 17.0403 21.341 17.0448 21.341 17.0596H21.741ZM21.3408 16.6691C21.2451 16.6691 21.1557 16.7073 21.0808 16.7517C21.0029 16.7979 20.9212 16.8626 20.8365 16.9407C20.6671 17.097 20.4665 17.3252 20.236 17.6199L20.5511 17.8664C20.7763 17.5784 20.9615 17.3696 21.1078 17.2346C21.181 17.1671 21.2397 17.1225 21.2847 17.0958C21.3326 17.0674 21.3486 17.0691 21.3408 17.0691V16.6691ZM20.2345 17.6219C19.8894 18.0744 19.6469 18.4041 19.5098 18.6082L19.8418 18.8313C19.9716 18.6382 20.2076 18.3169 20.5526 17.8644L20.2345 17.6219ZM19.5112 18.6061L19.1743 19.0944L19.5035 19.3216L19.8404 18.8333L19.5112 18.6061ZM19.162 19.1147C18.9718 19.4753 18.8242 19.7786 18.7202 20.0234L19.0884 20.1797C19.1863 19.9493 19.3283 19.6569 19.5158 19.3013L19.162 19.1147ZM18.7212 20.0211L18.4722 20.5875L18.8384 20.7485L19.0874 20.1821L18.7212 20.0211ZM18.4723 20.5871C18.4117 20.7244 18.366 20.8048 18.3363 20.843L18.652 21.0886C18.7134 21.0096 18.7752 20.8914 18.8382 20.7488L18.4723 20.5871ZM18.3398 20.8387C18.3363 20.8429 18.3342 20.844 18.3324 20.8447C18.3299 20.8458 18.3217 20.8488 18.3037 20.8488V21.2488C18.4358 21.2488 18.5595 21.201 18.6485 21.093L18.3398 20.8387ZM18.3037 20.8488C18.2441 20.8488 18.1857 20.8394 18.1277 20.82L18.0012 21.1995C18.0995 21.2323 18.2006 21.2488 18.3037 21.2488V20.8488ZM18.1302 20.8209C18.0726 20.8009 18.0269 20.7761 17.9906 20.7484L17.7477 21.0661C17.822 21.123 17.9065 21.1666 17.9987 21.1987L18.1302 20.8209ZM17.9885 20.7467C17.8851 20.6699 17.8787 20.6227 17.8787 20.6094H17.4787C17.4787 20.8044 17.5993 20.9558 17.7498 21.0677L17.9885 20.7467ZM17.8787 20.6094C17.8787 20.5381 17.9029 20.4201 17.9685 20.245L17.594 20.1046C17.5229 20.2941 17.4787 20.4658 17.4787 20.6094H17.8787ZM17.9678 20.2468C18.0377 20.0658 18.1239 19.8629 18.2268 19.6378L17.863 19.4715C17.7576 19.7022 17.668 19.9127 17.5947 20.1028L17.9678 20.2468ZM18.2257 19.6402L18.9093 18.1949L18.5477 18.0239L17.8641 19.4692L18.2257 19.6402ZM18.9106 18.1921C19.0337 17.9213 19.1278 17.6964 19.1914 17.519C19.2519 17.3504 19.2947 17.1994 19.2947 17.0889H18.8947C18.8947 17.1215 18.8765 17.2122 18.8149 17.3839C18.7565 17.5466 18.6675 17.7604 18.5464 18.0266L18.9106 18.1921ZM19.2947 17.0889C19.2947 16.9892 19.2724 16.8771 19.1925 16.7894C19.1094 16.6982 18.9971 16.6691 18.8945 16.6691V17.0691C18.9101 17.0691 18.9152 17.0713 18.9134 17.0707C18.9124 17.0703 18.9098 17.0693 18.9065 17.0671C18.9032 17.0649 18.8998 17.062 18.8968 17.0588C18.8906 17.0519 18.8898 17.0473 18.8908 17.0509C18.8921 17.0551 18.8947 17.0668 18.8947 17.0889H19.2947ZM19.3779 18.4461C19.4104 18.4461 19.4715 18.4378 19.523 18.3863C19.5746 18.3347 19.5828 18.2737 19.5828 18.2412H19.1828C19.1828 18.212 19.1902 18.1534 19.2402 18.1035C19.2901 18.0535 19.3487 18.0461 19.3779 18.0461V18.4461ZM19.5617 18.3307L19.5666 18.3209L19.2088 18.142L19.2039 18.1518L19.5617 18.3307ZM19.2463 18.09C19.2383 18.098 19.2258 18.1113 19.214 18.1291C19.2057 18.1415 19.1779 18.1843 19.1779 18.2461H19.5779C19.5779 18.2779 19.5702 18.3027 19.5642 18.3176C19.5581 18.3329 19.5512 18.3442 19.5468 18.3509C19.5382 18.3638 19.5306 18.3714 19.5291 18.3729L19.2463 18.09Z" fill="black" mask="url(#path-4-outside-2_458_8)"/>
</svg>
